<svg fill="#FFFFFF" xmlns="http://www.w3.org/2000/svg"  viewBox="0 0 64 64" width="64px" height="64px"><path d="M 23.009766 4.9882812 A 1.0001 1.0001 0 0 0 22.212891 6.6171875 C 22.212891 6.6171875 25.050142 10.229039 27.931641 13.902344 C 29.37239 15.738996 30.823189 17.591648 31.9375 19.015625 C 32.494655 19.727614 32.968278 20.3316 33.3125 20.773438 C 33.656722 21.215274 33.909331 21.545508 33.900391 21.533203 C 37.03383 25.834236 36.667 31.889641 32.777344 35.779297 C 31.843635 36.713006 30.783206 37.438772 29.654297 37.966797 A 1.0001 1.0001 0 0 0 29.541016 38.023438 C 25.990498 39.634365 21.766914 39.258204 18.533203 36.902344 C 18.541003 36.908044 18.215243 36.656868 17.773438 36.3125 C 17.331632 35.968132 16.725608 35.496693 16.013672 34.939453 C 14.589799 33.824973 12.738943 32.37246 10.902344 30.931641 C 7.2291445 28.050002 3.6171875 25.212891 3.6171875 25.212891 A 1.0002305 1.0002305 0 1 0 2.3828125 26.787109 C 2.3828125 26.787109 5.9941676 29.623748 9.6679688 32.505859 C 11.504869 33.946915 13.356248 35.398308 14.78125 36.513672 C 15.493751 37.071354 16.099165 37.5447 16.542969 37.890625 C 16.986772 38.23655 17.220685 38.420612 17.353516 38.517578 L 17.355469 38.517578 C 19.358181 39.976618 21.684739 40.781202 24.048828 40.953125 C 24.549595 50.990198 32.840174 59 43 59 C 53.481455 59 62 50.481455 62 40 C 62 29.847405 54.001643 21.560352 43.974609 21.048828 C 43.851952 17.937346 43.133803 14.875865 41.841797 12.035156 L 38.910156 5.5859375 A 1.0001 1.0001 0 0 0 37.953125 4.9882812 A 1.0001 1.0001 0 0 0 37.089844 6.4140625 L 40.021484 12.863281 C 41.195315 15.44416 41.853324 18.224296 41.974609 21.050781 C 40.094929 21.151434 38.288908 21.52237 36.591797 22.130859 C 36.282362 21.519334 35.929983 20.923664 35.517578 20.357422 L 35.517578 20.355469 C 35.417494 20.217886 35.235983 19.988217 34.890625 19.544922 C 34.544746 19.100958 34.071298 18.49384 33.513672 17.78125 C 32.39842 16.356071 30.944907 14.504941 29.503906 12.667969 C 26.621905 8.9940231 23.787109 5.3828125 23.787109 5.3828125 A 1.0001 1.0001 0 0 0 23.009766 4.9882812 z M 22.423828 14.998047 C 21.413757 14.998047 20.43002 15.306578 19.597656 15.878906 L 19.595703 15.878906 C 18.409207 16.696998 17.193436 17.735327 15.964844 18.962891 C 15.833416 19.094318 15.730169 19.205657 15.640625 19.296875 A 1.0006239 1.0006239 0 1 0 17.068359 20.699219 C 17.192815 20.572437 17.290334 20.465526 17.378906 20.376953 C 18.537179 19.219766 19.669898 18.258833 20.730469 17.527344 C 21.236105 17.179672 21.815899 16.998047 22.423828 16.998047 C 23.346166 16.998047 24.191771 17.405173 24.773438 18.126953 C 26.985195 20.873153 28.248294 22.444294 28.964844 23.337891 C 29.676536 24.225428 29.881952 24.487926 29.857422 24.455078 C 30.28513 25.041894 30.588628 25.68955 30.773438 26.367188 C 31.32853 28.401673 30.789818 30.683939 29.238281 32.236328 C 28.230888 33.243721 26.961339 33.845774 25.591797 33.986328 L 25.589844 33.988281 C 25.389686 34.009391 25.184368 34.019531 24.976562 34.019531 C 23.710376 34.019531 22.508015 33.625295 21.488281 32.882812 C 21.516051 32.903602 20.623067 32.201623 15.126953 27.775391 C 14.094262 26.943834 13.760066 25.542999 14.212891 24.357422 A 1.0001 1.0001 0 1 0 12.345703 23.642578 C 11.588528 25.625001 12.153738 27.947588 13.873047 29.332031 C 19.380658 33.767523 20.087575 34.332672 20.296875 34.490234 L 20.304688 34.496094 L 20.310547 34.5 C 21.666814 35.487517 23.29275 36.019531 24.976562 36.019531 C 25.250108 36.019531 25.523677 36.005313 25.796875 35.976562 C 27.623333 35.789116 29.329737 34.972998 30.652344 33.650391 C 32.728331 31.573259 33.443188 28.556823 32.703125 25.841797 L 32.703125 25.839844 C 32.456267 24.935474 32.047246 24.061222 31.470703 23.271484 L 31.466797 23.267578 L 31.462891 23.261719 C 31.377971 23.148491 31.243591 22.98159 30.525391 22.085938 C 29.807191 21.190283 28.544273 19.617894 26.332031 16.871094 C 25.377696 15.686874 23.94349 14.998047 22.423828 14.998047 z M 42.894531 23.005859 A 1.0001 1.0001 0 0 0 43.115234 23.005859 C 52.461928 23.068404 60 30.638361 60 40 C 60 49.400545 52.400545 57 43 57 C 33.921259 57 26.544751 49.906214 26.048828 40.953125 C 27.054299 40.872201 28.049555 40.667065 29.017578 40.353516 C 29.207526 47.909618 35.398918 54 43 54 C 50.72039 54 57 47.72039 57 40 C 57 36.60715 55.781536 33.493127 53.769531 31.072266 A 1.0001 1.0001 0 0 0 52.982422 30.699219 A 1.0001 1.0001 0 0 0 52.230469 32.349609 C 53.958464 34.428748 55 37.08485 55 40 C 55 46.63961 49.63961 52 43 52 C 36.36039 52 31 46.63961 31 40 C 31 39.835162 31.013045 39.674592 31.019531 39.511719 C 32.160113 38.915649 33.234349 38.150417 34.191406 37.193359 C 36.4375 34.947266 37.684775 32.077547 37.941406 29.136719 C 39.480456 28.418247 41.185978 28 43 28 C 43.28869 28 43.592871 28.022978 43.921875 28.048828 A 1.000126 1.000126 0 0 0 44.078125 26.054688 C 43.745129 26.028529 43.38731 26 43 26 C 41.22006 26 39.516554 26.339397 37.947266 26.947266 C 37.866421 25.943365 37.66457 24.949241 37.351562 23.982422 C 39.088768 23.369487 40.94715 23.017836 42.894531 23.005859 z M 47.996094 27 A 1.0001 1.0001 0 0 0 47.615234 28.927734 C 48.256007 29.195561 48.870183 29.526326 49.460938 29.904297 A 1.0004274 1.0004274 0 1 0 50.539062 28.21875 C 49.863817 27.786721 49.145993 27.400205 48.384766 27.082031 A 1.0001 1.0001 0 0 0 47.996094 27 z M 43 30 C 42.448 30 42 30.448 42 31 L 42 32 C 39.791 32 38 33.791 38 36 L 38 37 C 38 39.209 39.791 41 42 41 L 44 41 C 45.105 41 46 41.895 46 43 L 46 44 C 46 45.105 45.105 46 44 46 L 44 43 C 44 42.448 43.552 42 43 42 C 42.448 42 42 42.448 42 43 L 42 46 C 40.895 46 40 45.105 40 44 C 40 43.448 39.552 43 39 43 C 38.448 43 38 43.448 38 44 C 38 46.209 39.791 48 42 48 L 42 49 C 42 49.552 42.448 50 43 50 C 43.552 50 44 49.552 44 49 L 44 48 C 46.209 48 48 46.209 48 44 L 48 43 C 48 40.791 46.209 39 44 39 L 44 36 C 44 35.448 43.552 35 43 35 C 42.448 35 42 35.448 42 36 L 42 39 C 40.895 39 40 38.105 40 37 L 40 36 C 40 34.895 40.895 34 42 34 L 44 34 C 45.105 34 46 34.895 46 36 C 46 36.552 46.448 37 47 37 C 47.552 37 48 36.552 48 36 C 48 33.791 46.209 32 44 32 L 44 31 C 44 30.448 43.552 30 43 30 z"/></svg>