<?xml version="1.0" encoding="iso-8859-1"?><!-- Generator: Adobe Illustrator 22.1.0, SVG Export Plug-In . SVG Version: 6.00 Build 0)  --><svg fill="#FFFFFF" xmlns="http://www.w3.org/2000/svg" xmlns:xlink="http://www.w3.org/1999/xlink" viewBox="0 0 24 24" width="48px" height="48px"><g id="outlined"><polygon points="11.5,17.4 8.3,14.2 9.7,12.8 11.5,14.6 14.8,11.3 16.2,12.7 "/><path d="M19,4h-1V2h-2v2H8V2H6v2H5C3.897,4,3,4.897,3,6v14c0,1.103,0.897,2,2,2h14c1.103,0,2-0.897,2-2V6C21,4.897,20.103,4,19,4z M19,6l0,2H5V6H19z M5,20V10h14l0.001,10H5z"/></g></svg>